<?xml version="1.0" standalone="no"?>
<!DOCTYPE svg PUBLIC "-//W3C//DTD SVG 20010904//EN"
 "http://www.w3.org/TR/2001/REC-SVG-20010904/DTD/svg10.dtd">
<svg version="1.0" xmlns="http://www.w3.org/2000/svg"
 width="1280.000000pt" height="782.000000pt" viewBox="0 0 1280.000000 782.000000"
 preserveAspectRatio="xMidYMid meet">
<metadata>
Created by potrace 1.15, written by Peter Selinger 2001-2017
</metadata>
<g transform="translate(0.000000,782.000000) scale(0.100000,-0.100000)"
fill="#03a9f4" stroke="none">
<path d="M2757 7805 c-111 -16 -169 -33 -276 -82 -154 -71 -239 -141 -354
-288 -116 -151 -171 -278 -252 -592 -140 -538 -181 -627 -344 -746 -174 -127
-222 -220 -222 -427 0 -70 -6 -155 -14 -193 -18 -87 -76 -196 -141 -266 -153
-167 -256 -328 -310 -486 -36 -108 -46 -335 -19 -466 28 -143 116 -353 194
-469 17 -25 31 -50 31 -56 0 -32 -546 -423 -933 -669 -60 -37 -111 -74 -114
-81 -6 -15 24 -74 38 -74 5 0 72 16 147 35 143 35 308 90 402 132 106 48 120
53 120 45 0 -12 -139 -129 -220 -185 -101 -70 -232 -136 -348 -177 -106 -37
-107 -38 -110 -72 -5 -55 8 -59 133 -43 314 41 603 159 925 376 63 43 149 105
190 138 41 33 80 61 87 61 14 0 37 -73 54 -174 26 -155 -9 -330 -158 -776
-128 -387 -152 -473 -159 -575 -14 -184 68 -379 217 -521 115 -109 216 -150
348 -142 136 9 259 65 392 180 72 61 259 273 259 292 -1 9 -193 164 -236 189
-9 5 -28 -21 -66 -90 -90 -163 -174 -235 -289 -249 -46 -5 -59 -3 -89 18 -201
137 -143 459 158 873 61 84 135 209 163 277 107 260 71 594 -102 945 l-70 141
79 99 c44 54 111 128 149 165 39 36 99 101 133 145 35 43 94 110 130 149 37
39 89 100 116 135 88 115 386 469 395 469 5 0 53 -37 107 -81 192 -161 321
-189 551 -123 46 14 87 21 91 17 4 -4 15 -35 25 -68 9 -33 41 -124 71 -201 61
-159 63 -183 35 -306 -43 -184 -123 -581 -141 -698 -27 -169 -35 -373 -21
-487 6 -51 31 -176 56 -278 74 -307 91 -420 115 -785 12 -191 13 -353 0 -578
-20 -359 -74 -553 -189 -676 -116 -124 -171 -253 -171 -401 0 -73 3 -86 19
-95 13 -6 234 -10 649 -10 756 0 685 -15 676 143 -9 152 -20 202 -65 289 -70
137 -88 243 -100 588 -12 357 -8 455 37 855 32 286 97 665 115 665 12 0 66
-75 94 -130 85 -167 165 -511 196 -845 19 -207 17 -732 -4 -894 -23 -183 -31
-205 -90 -255 -74 -62 -77 -73 -77 -244 0 -102 4 -152 12 -160 9 -9 162 -12
629 -12 534 0 618 2 629 15 15 18 9 322 -9 430 -17 110 -50 419 -56 535 -3 58
-10 257 -15 443 -14 473 -29 625 -106 1044 -61 334 -58 426 19 539 36 53 115
103 207 130 123 36 379 34 690 -7 184 -23 642 -95 719 -112 l54 -12 2 -330 c3
-511 34 -718 170 -1135 91 -275 99 -319 98 -515 -1 -243 -26 -330 -140 -482
-34 -47 -71 -108 -82 -138 -27 -71 -46 -253 -35 -327 l9 -58 650 -1 650 -1 -1
108 c-1 102 -4 119 -53 274 -102 323 -126 445 -166 845 -20 203 -20 675 0 849
22 189 59 358 114 524 65 195 104 280 133 290 13 4 76 5 141 2 l119 -5 41 -50
c22 -27 173 -183 336 -345 449 -448 585 -600 718 -800 110 -167 201 -344 249
-483 32 -91 72 -284 80 -385 7 -79 -9 -241 -27 -273 -5 -10 -32 -30 -61 -46
-91 -50 -93 -54 -96 -289 -2 -147 0 -210 9 -220 10 -12 117 -14 700 -14 670 0
689 1 699 19 13 25 13 227 -1 311 -7 46 -28 100 -70 183 -72 141 -117 273
-159 462 -74 333 -134 485 -353 890 -162 302 -226 449 -272 631 -44 171 -50
264 -37 565 7 151 13 308 13 349 l1 75 28 -60 c37 -78 617 -1405 642 -1468
l19 -49 -31 -53 c-42 -74 -51 -160 -21 -209 39 -62 129 -135 226 -181 54 -26
105 -59 122 -78 81 -93 234 -237 273 -258 41 -22 57 -24 165 -23 66 1 165 8
220 17 55 9 121 19 147 22 57 7 88 40 88 92 0 48 -22 84 -80 133 -28 23 -60
60 -71 81 -43 86 -102 132 -202 159 -31 8 -68 30 -106 64 -33 28 -77 66 -99
83 -30 24 -47 50 -67 102 -34 89 -92 158 -143 167 -29 6 -47 1 -89 -20 -28
-16 -57 -26 -63 -24 -21 7 -403 811 -527 1108 -152 364 -182 462 -223 736 -31
201 -132 650 -216 954 -126 455 -295 873 -453 1125 -32 49 -81 129 -109 176
-29 48 -72 109 -95 135 -24 27 -58 71 -76 97 -50 74 -295 316 -408 403 -217
169 -247 189 -372 257 -42 22 -87 48 -101 57 -47 32 -225 117 -340 163 -425
167 -850 260 -1405 309 -196 17 -1034 17 -1155 0 -105 -14 -245 -27 -508 -47
-226 -17 -349 -12 -668 27 -142 17 -235 22 -449 22 -348 1 -400 -9 -622 -119
-84 -41 -156 -75 -161 -75 -5 0 -15 12 -21 28 -17 40 -66 93 -161 172 -138
116 -405 240 -615 286 -100 22 -319 26 -438 9z"/>
</g>
</svg>
