<?xml version="1.0" standalone="no"?>
<!DOCTYPE svg PUBLIC "-//W3C//DTD SVG 20010904//EN"
 "http://www.w3.org/TR/2001/REC-SVG-20010904/DTD/svg10.dtd">
<svg version="1.0" xmlns="http://www.w3.org/2000/svg"
 width="1280.000000pt" height="930.000000pt" viewBox="0 0 1280.000000 930.000000"
 preserveAspectRatio="xMidYMid meet">
<metadata>
Created by potrace 1.15, written by Peter Selinger 2001-2017
</metadata>
<g transform="translate(0.000000,930.000000) scale(0.100000,-0.100000)"
fill="#ffeb3b" stroke="none">
<path d="M6660 8289 c-647 -56 -1249 -231 -1715 -498 -119 -68 -318 -196 -375
-241 l-35 -28 -120 58 c-320 155 -650 238 -1070 271 -259 20 -412 -3 -612 -89
-261 -113 -500 -318 -620 -530 -59 -105 -73 -165 -73 -317 0 -207 -23 -260
-199 -465 -167 -193 -196 -275 -194 -555 0 -104 5 -219 11 -255 19 -109 31
-250 52 -609 95 -1587 336 -2551 846 -3394 196 -324 498 -712 592 -761 60 -31
81 0 122 186 26 119 46 148 101 148 22 0 49 -5 59 -10 12 -6 -5 27 -42 87
-119 189 -216 420 -279 662 -147 567 -109 1305 107 2121 70 263 84 303 126
339 47 41 62 31 53 -34 -5 -39 -18 -68 -118 -261 -26 -50 -56 -126 -67 -169
-21 -81 -27 -211 -11 -200 6 3 29 42 53 86 64 121 131 194 300 330 173 140
322 283 393 379 45 62 135 231 135 255 0 6 66 -54 148 -134 152 -151 311 -281
464 -380 77 -50 87 -59 83 -81 -8 -42 -34 -366 -45 -550 -16 -291 -22 -909
-10 -1039 21 -219 64 -389 144 -576 37 -87 36 -179 -4 -280 -35 -88 -38 -137
-10 -182 22 -36 55 -49 103 -38 17 3 91 10 162 15 72 5 158 11 193 14 l62 5 0
-35 c0 -20 -14 -70 -31 -112 -18 -43 -32 -97 -33 -122 -1 -51 19 -107 43 -119
24 -13 649 6 776 23 137 19 242 40 352 72 106 31 119 38 138 73 26 52 28 103
7 202 -17 77 -22 142 -26 354 -6 341 -41 671 -91 863 -12 49 -11 68 11 210 21
131 71 390 117 605 l10 48 46 -5 c308 -40 858 -44 1283 -9 l76 6 62 -124 c94
-186 304 -519 328 -519 4 0 7 -98 7 -218 1 -317 35 -497 136 -727 50 -114 53
-125 54 -205 0 -60 -7 -110 -24 -170 -21 -74 -22 -90 -12 -128 17 -59 42 -82
92 -82 22 0 48 4 57 9 9 5 91 14 182 20 151 11 418 44 464 57 16 5 17 2 11
-28 -4 -18 -20 -66 -36 -106 -16 -40 -29 -88 -29 -108 0 -44 23 -100 47 -112
11 -6 137 -7 338 -2 408 11 578 32 804 102 101 31 104 33 122 73 22 48 23 119
4 200 -9 37 -15 112 -15 195 -1 397 -61 785 -155 1004 -19 45 -35 86 -35 91 0
5 27 76 59 159 189 484 323 971 385 1396 33 228 40 335 40 585 1 271 -13 423
-54 625 -11 52 -18 96 -15 98 6 6 150 -242 214 -368 106 -208 165 -381 217
-635 20 -101 27 -165 29 -290 2 -88 10 -200 19 -250 23 -133 60 -270 71 -268
5 1 18 42 27 90 27 137 26 133 51 130 22 -2 22 0 22 118 0 134 -15 207 -52
262 -18 26 -29 64 -39 137 -41 273 -112 547 -195 753 -60 150 -212 463 -298
615 -133 237 -342 530 -546 768 -59 69 -138 166 -176 215 -263 347 -627 640
-1089 874 -438 222 -882 350 -1445 417 -164 19 -843 28 -1015 13z m-2600
-3459 c0 -5 -5 -10 -11 -10 -5 0 -7 5 -4 10 3 6 8 10 11 10 2 0 4 -4 4 -10z"/>
</g>
</svg>
