<?xml version="1.0" standalone="no"?>
<!DOCTYPE svg PUBLIC "-//W3C//DTD SVG 20010904//EN"
 "http://www.w3.org/TR/2001/REC-SVG-20010904/DTD/svg10.dtd">
<svg version="1.0" xmlns="http://www.w3.org/2000/svg"
 width="1280.000000pt" height="922.000000pt" viewBox="0 0 1280.000000 922.000000"
 preserveAspectRatio="xMidYMid meet">
<g transform="translate(0.000000,922.000000) scale(0.100000,-0.100000)"
fill="#03a9f4" stroke="none">
<path d="M2945 9199 c-63 -26 -97 -51 -212 -162 -70 -66 -112 -97 -168 -124
-90 -42 -92 -48 -40 -176 40 -99 45 -160 16 -223 -26 -56 -93 -110 -171 -137
-62 -21 -82 -22 -465 -23 -413 -2 -527 -10 -699 -45 -446 -93 -823 -369 -1019
-748 -65 -125 -89 -184 -122 -306 -26 -94 -65 -342 -65 -410 0 -51 35 -291 54
-376 42 -178 127 -373 233 -534 91 -137 283 -329 418 -416 367 -239 572 -313
943 -341 133 -10 162 -14 160 -27 -4 -18 -176 -110 -283 -152 -44 -17 -84 -35
-90 -41 -15 -15 59 -74 122 -98 244 -91 640 53 824 300 28 39 61 72 73 75 12
2 72 7 134 10 131 7 142 3 142 -59 0 -74 -16 -110 -57 -130 -215 -103 -401
-322 -458 -541 -20 -79 -20 -198 0 -219 20 -20 35 -14 120 47 93 67 193 112
287 131 106 22 291 20 473 -5 292 -39 581 -69 661 -69 53 0 85 -4 92 -12 27
-35 152 -343 152 -377 0 -14 -39 -98 -85 -186 -265 -498 -331 -648 -451 -1011
-87 -264 -129 -424 -214 -819 -91 -416 -132 -524 -266 -700 -215 -282 -289
-385 -310 -430 -63 -135 -9 -201 286 -348 303 -152 611 -258 947 -327 108 -23
198 -25 254 -8 50 14 114 69 139 118 20 40 50 195 70 360 28 230 71 355 294
845 73 162 128 270 136 270 7 0 35 -38 62 -84 70 -122 178 -251 398 -476 108
-110 208 -220 223 -245 36 -63 53 -143 82 -389 38 -328 44 -341 156 -341 156
0 450 104 704 248 214 122 380 248 531 403 159 165 233 290 234 397 0 102 -34
148 -196 264 -169 120 -348 314 -528 572 -78 112 -166 274 -166 306 0 10 5 20
12 22 6 2 119 -22 252 -54 466 -113 662 -138 1072 -138 146 0 331 5 412 10
178 13 544 56 590 69 67 20 66 23 58 -223 -3 -122 -11 -403 -16 -626 -6 -223
-15 -430 -21 -460 -12 -58 -35 -110 -93 -206 -52 -85 -154 -322 -165 -381 -12
-63 -1 -106 36 -146 85 -89 485 -223 783 -261 69 -9 155 -21 192 -26 98 -14
170 -12 288 9 125 23 156 34 192 68 57 55 56 104 -7 355 -51 200 -44 275 42
463 140 307 177 392 217 505 28 80 49 126 59 128 9 2 43 -22 77 -53 104 -96
196 -147 430 -240 376 -148 649 -322 925 -586 146 -139 159 -141 278 -35 209
186 453 464 590 671 85 129 215 385 268 528 l33 89 -24 44 c-35 68 -80 89
-327 158 -129 36 -199 74 -464 251 -431 289 -491 343 -584 517 -81 154 -134
339 -216 753 -29 149 -42 236 -42 300 -1 89 0 92 75 280 130 325 287 778 373
1080 49 170 63 186 89 103 60 -191 90 -580 67 -863 -14 -171 -24 -210 -59
-232 -56 -35 -83 -68 -99 -123 -8 -30 -19 -60 -24 -65 -4 -6 -47 -31 -95 -55
-156 -79 -244 -185 -244 -294 0 -98 56 -162 138 -160 58 1 90 18 165 84 32 29
61 50 64 47 3 -4 -2 -55 -11 -114 -36 -224 -32 -212 -80 -257 -62 -58 -86
-129 -93 -276 -7 -147 -2 -155 82 -105 31 19 65 35 74 35 9 0 41 -28 72 -62
l57 -63 52 58 c29 31 60 57 69 57 9 0 39 -26 68 -57 l53 -57 26 25 c15 13 42
48 61 77 18 28 39 52 46 52 7 0 39 -22 72 -50 88 -74 89 -73 81 73 -7 134 -24
222 -50 262 -9 14 -43 38 -74 53 l-57 27 -29 88 c-20 58 -26 91 -19 98 6 6 36
-1 88 -22 90 -36 143 -36 193 0 92 65 75 258 -30 357 -37 36 -117 77 -225 118
l-72 28 1 61 c2 55 -1 68 -30 109 -18 26 -32 53 -32 61 0 9 11 62 24 119 73
306 105 797 76 1143 -51 599 -281 1056 -769 1527 -501 484 -1211 884 -1931
1088 -705 199 -1328 236 -2189 131 -35 -4 -74 -6 -86 -3 -12 2 -66 39 -119 83
-300 243 -489 349 -622 349 -113 0 -209 -59 -403 -249 -79 -76 -133 -121 -146
-121 -11 0 -53 20 -92 45 -246 153 -447 217 -678 218 -251 1 -391 -56 -599
-242 -104 -93 -198 -146 -294 -166 -38 -8 -151 -19 -252 -25 -203 -12 -293
-28 -390 -72 -192 -86 -443 -297 -593 -498 -30 -41 -146 -217 -257 -390 -111
-173 -235 -360 -276 -416 -247 -339 -532 -514 -839 -514 -163 0 -287 49 -394
157 -105 106 -151 219 -151 373 0 109 21 195 70 295 154 312 575 597 1024 694
50 11 161 29 246 41 456 61 547 93 678 235 112 122 150 236 158 468 6 190 17
254 59 342 49 104 50 167 3 221 -32 36 -103 75 -136 73 -9 0 -39 -9 -67 -20z"/>
</g>
</svg>
