<?xml version="1.0" standalone="no"?>
<!DOCTYPE svg PUBLIC "-//W3C//DTD SVG 20010904//EN"
 "http://www.w3.org/TR/2001/REC-SVG-20010904/DTD/svg10.dtd">
<svg version="1.0" xmlns="http://www.w3.org/2000/svg"
 width="1280.000000pt" height="896.000000pt" viewBox="0 0 1280.000000 896.000000"
 preserveAspectRatio="xMidYMid meet">
<metadata>
Created by potrace 1.15, written by Peter Selinger 2001-2017
</metadata>
<g transform="translate(0.000000,896.000000) scale(0.100000,-0.100000)"
fill="#cddc39" stroke="none">
<path d="M7465 8159 c-237 -28 -249 -30 -415 -65 -146 -30 -161 -34 -258 -60
-93 -25 -153 -42 -342 -97 -117 -35 -374 -101 -495 -129 -206 -47 -572 -19
-960 72 -22 5 -78 18 -125 29 -47 11 -141 33 -210 50 -385 92 -619 126 -810
117 -338 -15 -568 -103 -741 -283 -76 -80 -126 -151 -197 -285 -58 -109 -78
-139 -215 -320 -98 -130 -132 -187 -166 -280 -28 -75 -96 -298 -121 -393 -12
-44 -28 -105 -36 -135 -24 -87 -94 -371 -104 -420 -26 -130 -114 -451 -155
-565 -155 -433 -371 -692 -631 -759 -143 -37 -373 -9 -528 63 -366 171 -521
554 -405 1001 45 174 112 301 233 446 175 208 409 308 579 247 53 -19 73 -13
94 28 23 43 16 102 -17 147 -62 86 -219 182 -320 197 -62 9 -173 -17 -262 -60
-166 -81 -328 -232 -501 -468 -239 -325 -357 -667 -357 -1031 0 -448 159 -797
475 -1040 202 -157 411 -247 721 -311 197 -41 609 -52 839 -21 72 9 155 19
185 22 l55 5 -65 -58 c-35 -32 -82 -74 -104 -94 l-40 -37 39 -11 c22 -6 85
-18 141 -27 93 -16 106 -15 185 0 151 31 292 116 452 273 165 161 321 374 462
628 36 66 72 125 78 132 49 48 251 118 468 163 156 33 313 71 359 88 21 8 42
-4 175 -100 82 -59 163 -119 179 -131 l29 -24 -12 -129 c-31 -324 -165 -1113
-266 -1569 -9 -38 -20 -92 -24 -120 -5 -27 -23 -124 -41 -215 -105 -549 -172
-1012 -229 -1589 -17 -175 -40 -209 -322 -477 -47 -44 -93 -97 -103 -118 -47
-99 33 -186 201 -221 180 -37 663 -44 814 -11 132 29 208 92 229 189 12 60 7
81 -55 227 -26 60 -27 69 -17 119 7 30 40 113 75 185 36 72 75 160 87 196 211
607 406 1056 680 1565 80 148 283 497 355 610 156 244 198 303 218 309 42 11
272 6 357 -9 202 -34 436 -123 793 -302 288 -144 494 -222 695 -264 83 -17
127 -20 307 -17 497 7 625 -2 800 -58 203 -65 310 -165 407 -379 54 -121 115
-350 143 -540 61 -410 251 -850 525 -1210 29 -38 64 -94 77 -123 24 -51 24
-53 8 -102 -9 -28 -43 -86 -75 -129 -78 -106 -81 -112 -70 -153 22 -79 92
-111 283 -127 445 -38 865 29 957 153 36 49 37 42 -76 476 -105 398 -137 542
-194 870 -10 55 -21 166 -40 380 -19 220 -7 411 40 640 35 171 71 322 135 580
159 639 210 910 245 1319 6 69 12 126 14 128 2 2 11 -45 20 -104 9 -60 21
-130 26 -158 6 -27 24 -124 40 -215 17 -91 35 -183 40 -205 5 -22 14 -67 21
-100 6 -33 19 -97 30 -142 10 -46 28 -122 39 -170 130 -561 289 -1032 481
-1418 131 -264 246 -454 383 -632 152 -197 155 -197 52 9 -160 321 -275 639
-389 1083 -45 175 -49 194 -91 380 -43 191 -117 588 -155 835 -12 74 -26 162
-31 195 -8 53 -29 204 -60 435 -88 648 -158 1036 -229 1265 -54 172 -76 237
-106 310 -97 236 -176 365 -318 523 -36 41 -69 82 -72 93 -4 10 -13 19 -21 19
-7 0 -46 30 -85 68 -435 412 -982 685 -2159 1078 -253 85 -525 160 -735 203
-33 7 -78 17 -100 21 -187 41 -502 59 -670 39z"/>
<path d="M6254 3427 c-17 -28 -149 -248 -294 -487 -144 -239 -290 -479 -323
-534 l-59 -99 6 -96 c24 -344 84 -565 241 -887 102 -208 151 -323 161 -373 9
-45 -14 -126 -64 -226 -65 -132 -74 -160 -62 -206 21 -77 113 -109 309 -109
496 0 847 135 877 338 16 104 -61 292 -216 532 -118 182 -196 354 -229 505
-34 154 -33 263 9 830 23 303 49 744 50 838 l0 27 -187 0 -188 0 -31 -53z"/>
<path d="M8716 2849 c-113 -280 -197 -738 -236 -1289 -16 -227 -40 -510 -46
-550 -8 -49 -57 -132 -126 -218 -73 -89 -126 -175 -134 -217 -13 -73 50 -128
192 -166 71 -19 113 -22 400 -26 554 -8 755 23 809 127 23 45 18 78 -25 170
-33 70 -40 96 -40 147 0 89 29 221 111 510 27 94 49 189 49 210 0 50 -72 431
-112 593 -41 169 -91 318 -141 420 -97 200 -286 307 -578 326 l-106 7 -17 -44z"/>
</g>
</svg>
